<svg width="550" height="550" xmlns="http://www.w3.org/2000/svg">
 <g>
  <title>Layer 1</title>
  <g id="Texto">
   <text id="svg_1"/>
   <text id="svg_2"/>
   <text fill=" #1d1d1b" font-family=" Iori-Bold, Iori" font-size=" 36px" y="412.87" x="365.59" id="svg_3">
    <tspan x="0" y="0" id="svg_4">ZIMA</tspan>
   </text>
  </g>
  <g id="svg_26">
   <g id="svg_24">
    <g id="trazo">
     <g id="svg_5">
      <polygon points="338.8099365234375,254.3900089263916 347.5599365234375,240.59002113342285 360.63995361328125,266.9500370025635 349.7199401855469,280.2900333404541 334.2299499511719,261.35003089904785 338.8099365234375,254.3900089263916 " fill=" #1d1d1b" id="svg_6"/>
      <polygon points="210.7099609375,254.3900089263916 201.9599609375,240.59002113342285 188.87994384765625,266.9500370025635 199.78994750976562,280.2900333404541 215.49993896484375,261.09002113342285 210.7099609375,254.3900089263916 " fill=" #1d1d1b" id="svg_7"/>
      <g id="svg_8">
       <polygon points="274.99993896484375,125.95000648498535 285.1799621582031,145.88001441955566 274.99993896484375,161.19002723693848 274.99993896484375,125.95000648498535 " fill=" #1d1d1b" id="svg_9"/>
       <polygon points="274.99993896484375,125.95000648498535 264.8199462890625,145.88001441955566 274.99993896484375,161.19002723693848 274.99993896484375,125.95000648498535 " fill=" #1d1d1b" id="svg_10"/>
       <path d="m414.46002,373.91003c-56.48007,17.97 -75.36005,49.45999 -75.36005,49.45999l-64.09003,-11.13998l0,6.59998s67.12003,12.79001 67.12003,12.79001c0,0 25.01001,-35.45001 87.48007,-52.64996l-80.75006,-159.14003l-8.75,11.94l-65.10001,-129.48l0,23.66s64.09,128.51999 64.09,128.51999l8.75,-13.45999l66.62006,132.89999l-0.01001,0z" fill=" #1d1d1b" id="svg_11"/>
       <path d="m135.53998,373.91003c56.48,17.97 75.35999,49.45999 75.35999,49.45999l64.08997,-11.13998l0,6.59998l-67.12,12.79001s-25.00996,-35.45001 -87.47997,-52.64996l80.75001,-159.14003l8.74998,11.94l65.09998,-129.48l0,23.66s-64.08997,128.51999 -64.08997,128.51999l-8.75,-13.45999l-66.62,132.89999l0.01001,0l0,0z" fill=" #1d1d1b" id="svg_12"/>
      </g>
     </g>
    </g>
    <g id="T4">
     <g id="svg_13">
      <polygon points="309.5999450683594,106.19002723693848 296.7799377441406,100.0200138092041 289.18994140625,81.82003211975098 284.0299377441406,93.2600040435791 274.99993896484375,71.22002601623535 274.99993896484375,33.54001808166504 309.5999450683594,106.19002723693848 " fill=" #1d1d1b" id="svg_14"/>
      <polygon points="240.3999786376953,106.19002723693848 253.20997619628906,100.0200138092041 260.8099365234375,81.82003211975098 265.9699401855469,93.2600040435791 274.99993896484375,71.22002601623535 274.99993896484375,33.54001808166504 240.3999786376953,106.19002723693848 " fill=" #1d1d1b" id="svg_15"/>
      <path d="m94.74998,374.76004l180.24995,-332.36002l0,-22.42999l-196.76996,359.32001s86.92,39.53 196.76996,150.72998l0,-20.19s-126.07997,-115.22 -180.24995,-135.06998z" fill=" #1d1d1b" id="svg_16"/>
      <path d="m456.98999,376.44003l-181.99005,-334.04001l0,-22.42999s196.77008,359.32999 196.77008,359.32999c0,0 -86.9201,39.53 -196.77008,150.72995l0,-20.19s115.47998,-108.60992 181.99005,-133.39996l0,0.00003z" fill=" #1d1d1b" id="svg_17"/>
     </g>
    </g>
    <g id="T3">
     <g id="svg_18">
      <polyline points="194.52996826171875,353.2700138092041 274.9999694824219,197.61001014709473 274.9999694824219,218.47002601623535 212.8099365234375,340.0400333404541 " fill=" #1d1d1b" id="svg_19"/>
      <polyline points="355.4699401855469,353.2700138092041 274.9999694824219,197.61001014709473 274.9999694824219,218.47002601623535 340.4399719238281,346.10003089904785 " fill=" #1d1d1b" id="svg_20"/>
     </g>
    </g>
    <g id="t2">
     <g id="svg_21">
      <path d="m161.22495,365.89001s70.98999,25.57001 113.78,105.87l0,-20.23999s-23.82999,-49.35001 -95.82999,-87.48001l-17.94,1.85001l-0.01001,0z" fill=" #1d1d1b" id="svg_22"/>
      <path d="m388.77496,365.84003s-70.98999,25.57001 -113.78,105.87l0,-20.23999s23.82999,-49.35001 95.82999,-87.48001l17.94,1.85001l0.01001,0z" fill=" #1d1d1b" id="svg_23"/>
     </g>
    </g>
   </g>
   <text fill=" #1d1d1b" stroke-width="0" x="312.11111" y="408.24842" id="svg_25" font-size="18" font-family="Noto Sans JP" text-anchor="start" xml:space="preserve" font-weight="bold" transform="matrix(1.86705 0 0 1.86337 -352.233 -388.766)">ZIMA</text>
  </g>
 </g>

</svg>